<?xml version="1.0" encoding="UTF-8" standalone="no"?><svg width="155" height="90" viewBox="0 0 155 90" fill="none" xmlns="http://www.w3.org/2000/svg">
<path d="M49.1875 9.01562H53.4688L58.7812 25.0469L64.1719 9.01562H68.3906L72.2656 32H68.0469L65.5781 17.4844L60.6875 32H56.8281L52 17.4844L49.4844 32H45.2188L49.1875 9.01562ZM75.7969 9.01562H80.9844C84.3281 9.01562 86.8125 9.43229 88.4375 10.2656C90.0625 11.0885 91.401 12.4323 92.4531 14.2969C93.5052 16.1615 94.0312 18.3385 94.0312 20.8281C94.0312 22.599 93.7344 24.2292 93.1406 25.7188C92.5573 27.1979 91.7448 28.4271 90.7031 29.4062C89.6719 30.3854 88.5521 31.0625 87.3438 31.4375C86.1354 31.8125 84.0417 32 81.0625 32H75.7969V9.01562ZM80.1562 13.2344V27.7188H82.1875C84.1875 27.7188 85.6354 27.4896 86.5312 27.0312C87.4375 26.5729 88.1771 25.8021 88.75 24.7188C89.3229 23.6354 89.6094 22.3021 89.6094 20.7188C89.6094 18.2812 88.9271 16.3906 87.5625 15.0469C86.3333 13.8385 84.3594 13.2344 81.6406 13.2344H80.1562ZM98.1875 9.01562H102.562V27.8281H108.938V32H98.1875V9.01562Z" fill="black"/>
<path d="M11.3359 74.8047C11.7109 74.8047 12.0312 74.9375 12.2969 75.2031C12.5625 75.4688 12.6953 75.7891 12.6953 76.1641C12.6953 76.5391 12.5625 76.8594 12.2969 77.125C12.0312 77.3906 11.7109 77.5234 11.3359 77.5234C10.9609 77.5234 10.6406 77.3906 10.375 77.125C10.1094 76.8594 9.97656 76.5391 9.97656 76.1641C9.97656 75.7891 10.1094 75.4688 10.375 75.2031C10.6406 74.9375 10.9609 74.8047 11.3359 74.8047ZM26.6641 67.7617H28.3984V79.3984C28.3984 81.1875 28.2578 82.4336 27.9766 83.1367C27.7031 83.832 27.2422 84.3906 26.5938 84.8125C25.9453 85.2266 25.1602 85.4336 24.2383 85.4336C23.543 85.4336 22.8555 85.2969 22.1758 85.0234C21.5039 84.7578 20.7578 84.2852 19.9375 83.6055L20.8516 82.2344C21.75 82.8672 22.4961 83.3125 23.0898 83.5703C23.4805 83.7422 23.8633 83.8281 24.2383 83.8281C24.7305 83.8281 25.1758 83.6797 25.5742 83.3828C25.9805 83.0859 26.2617 82.6914 26.418 82.1992C26.582 81.707 26.6641 80.7539 26.6641 79.3398V67.7617ZM32.125 72.25H33.7773V78.2031C33.7773 79.6562 33.8555 80.6562 34.0117 81.2031C34.2461 81.9844 34.6914 82.6016 35.3477 83.0547C36.0117 83.5078 36.8008 83.7344 37.7148 83.7344C38.6289 83.7344 39.4023 83.5156 40.0352 83.0781C40.6758 82.6328 41.1172 82.0508 41.3594 81.332C41.5234 80.8398 41.6055 79.7969 41.6055 78.2031V72.25H43.2812V78.5078C43.2812 80.2656 43.0742 81.5898 42.6602 82.4805C42.2539 83.3711 41.6367 84.0703 40.8086 84.5781C39.9883 85.0781 38.957 85.3281 37.7148 85.3281C36.4727 85.3281 35.4336 85.0781 34.5977 84.5781C33.7695 84.0703 33.1484 83.3672 32.7344 82.4688C32.3281 81.5625 32.125 80.2031 32.125 78.3906V72.25ZM46.6914 67.3281H48.332V85H46.6914V67.3281ZM62.4766 80.7695L63.8594 81.4961C63.4062 82.3867 62.8828 83.1055 62.2891 83.6523C61.6953 84.1992 61.0273 84.6172 60.2852 84.9062C59.543 85.1875 58.7031 85.3281 57.7656 85.3281C55.6875 85.3281 54.0625 84.6484 52.8906 83.2891C51.7188 81.9219 51.1328 80.3789 51.1328 78.6602C51.1328 77.043 51.6289 75.6016 52.6211 74.3359C53.8789 72.7266 55.5625 71.9219 57.6719 71.9219C59.8438 71.9219 61.5781 72.7461 62.875 74.3945C63.7969 75.5586 64.2656 77.0117 64.2812 78.7539H52.8203C52.8516 80.2383 53.3242 81.457 54.2383 82.4102C55.1523 83.3555 56.2812 83.8281 57.625 83.8281C58.2734 83.8281 58.9023 83.7148 59.5117 83.4883C60.1289 83.2617 60.6523 82.9609 61.082 82.5859C61.5117 82.2109 61.9766 81.6055 62.4766 80.7695ZM62.4766 77.3359C62.2578 76.4609 61.9375 75.7617 61.5156 75.2383C61.1016 74.7148 60.5508 74.293 59.8633 73.9727C59.1758 73.6523 58.4531 73.4922 57.6953 73.4922C56.4453 73.4922 55.3711 73.8945 54.4727 74.6992C53.8164 75.2852 53.3203 76.1641 52.9844 77.3359H62.4766ZM73.7617 73.6445L72.707 74.7344C71.832 73.8828 70.9766 73.457 70.1406 73.457C69.6094 73.457 69.1523 73.6328 68.7695 73.9844C68.3945 74.3359 68.207 74.7461 68.207 75.2148C68.207 75.6289 68.3633 76.0234 68.6758 76.3984C68.9883 76.7812 69.6445 77.2305 70.6445 77.7461C71.8633 78.3789 72.6914 78.9883 73.1289 79.5742C73.5586 80.168 73.7734 80.8359 73.7734 81.5781C73.7734 82.625 73.4062 83.5117 72.6719 84.2383C71.9375 84.9648 71.0195 85.3281 69.918 85.3281C69.1836 85.3281 68.4805 85.168 67.8086 84.8477C67.1445 84.5273 66.5938 84.0859 66.1562 83.5234L67.1875 82.3516C68.0234 83.2969 68.9102 83.7695 69.8477 83.7695C70.5039 83.7695 71.0625 83.5586 71.5234 83.1367C71.9844 82.7148 72.2148 82.2188 72.2148 81.6484C72.2148 81.1797 72.0625 80.7617 71.7578 80.3945C71.4531 80.0352 70.7656 79.582 69.6953 79.0352C68.5469 78.4414 67.7656 77.8555 67.3516 77.2773C66.9375 76.6992 66.7305 76.0391 66.7305 75.2969C66.7305 74.3281 67.0586 73.5234 67.7148 72.8828C68.3789 72.2422 69.2148 71.9219 70.2227 71.9219C71.3945 71.9219 72.5742 72.4961 73.7617 73.6445ZM83.6055 67.7617H92.2422V69.4609H85.3164V74.8516H92.2422V76.5508H85.3164V85H83.6055V67.7617ZM105.719 80.7695L107.102 81.4961C106.648 82.3867 106.125 83.1055 105.531 83.6523C104.938 84.1992 104.27 84.6172 103.527 84.9062C102.785 85.1875 101.945 85.3281 101.008 85.3281C98.9297 85.3281 97.3047 84.6484 96.1328 83.2891C94.9609 81.9219 94.375 80.3789 94.375 78.6602C94.375 77.043 94.8711 75.6016 95.8633 74.3359C97.1211 72.7266 98.8047 71.9219 100.914 71.9219C103.086 71.9219 104.82 72.7461 106.117 74.3945C107.039 75.5586 107.508 77.0117 107.523 78.7539H96.0625C96.0938 80.2383 96.5664 81.457 97.4805 82.4102C98.3945 83.3555 99.5234 83.8281 100.867 83.8281C101.516 83.8281 102.145 83.7148 102.754 83.4883C103.371 83.2617 103.895 82.9609 104.324 82.5859C104.754 82.2109 105.219 81.6055 105.719 80.7695ZM105.719 77.3359C105.5 76.4609 105.18 75.7617 104.758 75.2383C104.344 74.7148 103.793 74.293 103.105 73.9727C102.418 73.6523 101.695 73.4922 100.938 73.4922C99.6875 73.4922 98.6133 73.8945 97.7148 74.6992C97.0586 75.2852 96.5625 76.1641 96.2266 77.3359H105.719ZM109.973 72.25H111.648V74.1133C112.148 73.3789 112.676 72.832 113.23 72.4727C113.785 72.1055 114.363 71.9219 114.965 71.9219C115.418 71.9219 115.902 72.0664 116.418 72.3555L115.562 73.7383C115.219 73.5898 114.93 73.5156 114.695 73.5156C114.148 73.5156 113.621 73.7422 113.113 74.1953C112.605 74.6406 112.219 75.3359 111.953 76.2812C111.75 77.0078 111.648 78.4766 111.648 80.6875V85H109.973V72.25ZM117.191 72.25H118.867V74.1133C119.367 73.3789 119.895 72.832 120.449 72.4727C121.004 72.1055 121.582 71.9219 122.184 71.9219C122.637 71.9219 123.121 72.0664 123.637 72.3555L122.781 73.7383C122.438 73.5898 122.148 73.5156 121.914 73.5156C121.367 73.5156 120.84 73.7422 120.332 74.1953C119.824 74.6406 119.438 75.3359 119.172 76.2812C118.969 77.0078 118.867 78.4766 118.867 80.6875V85H117.191V72.25ZM123.66 72.25H125.395L129.777 82.0703L134.031 72.25H135.777L128.172 89.6641H126.438L128.898 84.0391L123.66 72.25ZM149.781 74.8047C150.156 74.8047 150.477 74.9375 150.742 75.2031C151.008 75.4688 151.141 75.7891 151.141 76.1641C151.141 76.5391 151.008 76.8594 150.742 77.125C150.477 77.3906 150.156 77.5234 149.781 77.5234C149.406 77.5234 149.086 77.3906 148.82 77.125C148.555 76.8594 148.422 76.5391 148.422 76.1641C148.422 75.7891 148.555 75.4688 148.82 75.2031C149.086 74.9375 149.406 74.8047 149.781 74.8047Z" fill="black"/>
<path d="M0 48L154.5 48" stroke="black" stroke-width="3"/>
</svg>
